		<svg
   xmlns:dc="http://purl.org/dc/elements/1.1/"
   xmlns:cc="http://creativecommons.org/ns#"
   xmlns:rdf="http://www.w3.org/1999/02/22-rdf-syntax-ns#"
   xmlns:svg="http://www.w3.org/2000/svg"
   xmlns="http://www.w3.org/2000/svg"
   version="1.1"
   width="132"
   height="132"
   id="c5-icon-svg">
  <defs
     id="defs5413" />
  <metadata
     id="metadata5416">
    <rdf:RDF>
      <cc:Work
         rdf:about="">
        <dc:format>image/svg+xml</dc:format>
        <dc:type
           rdf:resource="http://purl.org/dc/dcmitype/StillImage" />
        <dc:title></dc:title>
      </cc:Work>
    </rdf:RDF>
  </metadata>
	<circle id="c5-icon-background" cy="65" cx="65" r="64" style="fill:#010110;fill-opacity:0.08;stroke:#010110;stroke-opacity:0.1;stroke-width:2"/>
  <g
     transform="translate(-129.40543,-408.09962)"
     id="layer1">
    <g
       transform="matrix(0.82938082,0,0,0.82938082,-39.870285,159.08888)"
       id="g5221">
      <path
         d="m 332.62634,396.60735 c -11.162,-13.299 -28.337,14.747 -37.589,20.82 -6.389,4.195 -16.082,4.525 -22.893,0.521 -9.319,-5.478 -6.467,-18.58 3.373,-21.832 8.751,-2.894 24.049,6.324 29.605,-2.899 6.842,-11.362 -16.543,-14.027 -23.463,-13.751 -12.471,0.491 -24.484,4.532 -31.885,13.969 -7.971,10.164 -6.148,22.451 2.638,31.672 8.952,8.657 21.913,11.994 34.814,10.936 3.26,-0.27 8.859,-1.663 13.146,-4.008 8.5,-4.65 34.511,-32.74 32.254,-35.428 z m -81.628,-9.952 c 4.323,0.861 -4.049,-23.286 -4.598,-26.61 -0.662,-4.02 -2.146,-9.688 -6.133,-10.277 -4.631,-0.675 -5.897,4.591 -4.955,9.211 0.976,4.808 11.626,26.865 15.686,27.676 z m 35.767,-12.47 c 6.696,0.951 6.238,-31.188 6.243,-35.555 0.004,-3.926 1.537,-14.809 -3.764,-15.832 -7.277,-1.411 -8,8.178 -8.157,13.336 0.301,5.153 -1.327,37.063 5.678,38.051 z m 15.948,5.141 c 7.316,3.057 12.915,-29.41 13.721,-33.574 0.818,-4.243 0.953,-13.25 -6.32,-10.396 -3.648,1.429 -4.316,7.346 -4.878,10.609 -0.912,4.152 -8.163,31.003 -2.523,33.361 z m -35.185,-2.729 c 8.246,0.613 0.477,-32.039 -0.176,-36.393 -0.664,-4.438 -3.65,-13.332 -9.811,-8.154 -3.088,2.596 -1.695,8.631 -1.118,12.018 0.544,4.381 4.747,32.057 11.105,32.529 z"
         style="fill:#000000;filter:url(#c5-icon-blur);opacity:0.4" />
			<defs>
				<filter id="c5-icon-blur">
					<feGaussianBlur stdDeviation="2.2" />
				</filter>
			</defs>
      <path
         d="m 332.62634,396.60735 c -11.162,-13.299 -28.337,14.747 -37.589,20.82 -6.389,4.195 -16.082,4.525 -22.893,0.521 -9.319,-5.478 -6.467,-18.58 3.373,-21.832 8.751,-2.894 24.049,6.324 29.605,-2.899 6.842,-11.362 -16.543,-14.027 -23.463,-13.751 -12.471,0.491 -24.484,4.532 -31.885,13.969 -7.971,10.164 -6.148,22.451 2.638,31.672 8.952,8.657 21.913,11.994 34.814,10.936 3.26,-0.27 8.859,-1.663 13.146,-4.008 8.5,-4.65 34.511,-32.74 32.254,-35.428 z m -81.628,-9.952 c 4.323,0.861 -4.049,-23.286 -4.598,-26.61 -0.662,-4.02 -2.146,-9.688 -6.133,-10.277 -4.631,-0.675 -5.897,4.591 -4.955,9.211 0.976,4.808 11.626,26.865 15.686,27.676 z m 35.767,-12.47 c 6.696,0.951 6.238,-31.188 6.243,-35.555 0.004,-3.926 1.537,-14.809 -3.764,-15.832 -7.277,-1.411 -8,8.178 -8.157,13.336 0.301,5.153 -1.327,37.063 5.678,38.051 z m 15.948,5.141 c 7.316,3.057 12.915,-29.41 13.721,-33.574 0.818,-4.243 0.953,-13.25 -6.32,-10.396 -3.648,1.429 -4.316,7.346 -4.878,10.609 -0.912,4.152 -8.163,31.003 -2.523,33.361 z m -35.185,-2.729 c 8.246,0.613 0.477,-32.039 -0.176,-36.393 -0.664,-4.438 -3.65,-13.332 -9.811,-8.154 -3.088,2.596 -1.695,8.631 -1.118,12.018 0.544,4.381 4.747,32.057 11.105,32.529 z"
         style="fill:#ffffff" />
    </g>
  </g>
</svg>
